<mxfile host="app.diagrams.net" modified="2024-04-18T08:49:49.626Z" agent="Mozilla/5.0 (X11; Linux x86_64) AppleWebKit/537.36 (KHTML, like Gecko) Chrome/119.0.0.0 Safari/537.36" version="24.2.5" etag="YL8zcbyWPnJ8x6PucEPF" type="github">
  <diagram name="Page-1" id="JC4cb9zr0qlf4iiEeogh">
    <mxGraphModel>
      <root>
        <mxCell id="0" />
        <mxCell id="1" parent="0" />
      </root>
    </mxGraphModel>
  </diagram>
</mxfile>
